/* XPM */
static char * bas1_xpm[] = {
"64 64 7 1",
" 	c None",
".	c #120E14",
"+	c #D1AB78",
"@	c #AA6928",
"#	c #82491E",
"$	c #9A877E",
"%	c #D3DFE1",
"                                                                ",
"                                                                ",
"                                                                ",
"                                                                ",
"                                                                ",
"                                                                ",
"                                                                ",
"                                                                ",
"                                ..                              ",
"                               .++..                            ",
"                               .++++.                           ",
"                                .+++.                           ",
"                                .+++.                           ",
"                                .+++.                           ",
"                                .@++.                           ",
"                                .@@+.                           ",
"                                .@@@.                           ",
"                                .@@#.                           ",
"                               .#@@.                            ",
"                              .#@@#.                            ",
"                              .#@#.                             ",
"                             .@@#.                              ",
"                            .###.                               ",
"                            .....                               ",
"                           .#####.                              ",
"                        . .#######.   .                         ",
"                       .@.#####.###. .@.                        ",
"                       .#@..##.+.##..@#.                        ",
"                       .$#@...+++...@#$.                        ",
"                       .$##@@+++++@@##$.                        ",
"                       .$$#@@@+@+@@@#$$.                        ",
"                        .$#@@@@@@@@@#$.                         ",
"                       .#@@@@@@@@@@@@@#.                        ",
"                       .#@@@@@@@@@@@@@#.  .                     ",
"                     ...@@@.%@@@@@.%@@@...                      ",
"                    .  .@@....@@@....@@.                        ",
"                      ..@@@..#@@@#..@@@...                      ",
"                     . .#@@@@@@.@@@@@@#.                        ",
"                        .#@@@@.@.@@@@#.                         ",
"                         .#@@@@@@@@@#.                          ",
"                          .#@@@@@@@#.                           ",
"                          .#########.                           ",
"                          .@+++++++@.                           ",
"                          .#@++.++@#.                           ",
"                          .###@..@#.                            ",
"                          .@##. .##.                            ",
"                           .@#. .#@.                            ",
"                           .@#. .+++.                           ",
"                           .@#. .@@+.                           ",
"                           .@#.  ...                            ",
"                          .+++.                                 ",
"                          .+@@.                                 ",
"                           ...                                  ",
"                                                                ",
"                                                                ",
"                                                                ",
"                                                                ",
"                                                                ",
"                                                                ",
"                                                                ",
"                                                                ",
"                                                                ",
"                                                                ",
"                                                                "};
