/* XPM */
static char * droite1_xpm[] = {
"64 64 7 1",
" 	c None",
".	c #120E14",
"+	c #D1AB78",
"@	c #82491E",
"#	c #9A877E",
"$	c #AA6928",
"%	c #D3DFE1",
"                                                                ",
"                                                                ",
"                                                                ",
"                                                                ",
"                                                                ",
"                                                                ",
"                                                                ",
"                                                                ",
"                                                                ",
"                                                                ",
"                                                                ",
"                                                                ",
"                                                                ",
"                                                                ",
"                                                                ",
"                                                                ",
"                                                                ",
"             ..                             ..                  ",
"            .++.                           .+@.                 ",
"            .+++.                         .+@#.                 ",
"            .+++.                        .$@##.                 ",
"             .++.                       .@$@##@.                ",
"             .+++.                     .@@$$@#@+.               ",
"             .++$.                    .@@$$$$@$$+.              ",
"             .+$$.                    .@$$$$$$$$$.              ",
"             .$$$.                   .@@$$$$$$$%.$.             ",
"             .@$$.                   .@@$$$$$$$..@.             ",
"              .$$@.                  .@$$$$$.$$$.@$.            ",
"              .@$$@.                .@$$$$$$$..$$$..            ",
"               .@@$@................@$$$$$$$$$.$$.$.            ",
"                .@@$$$++++++++++++$$$$$$$$+$$.$$$$.             ",
"                 .@@@$$++++++++++$$$$$$$$$+++$$@..              ",
"                  .@@$$$$$$$$$$$$$$$$$$$$$$++++.                ",
"                   .@@$$$$$$$$$$$$$$$$$$$$$++++.                ",
"                   .@@$$$$$$$$$$$$$$$$$$$$$$+++.                ",
"                    .@$$$$$$$$$$$$$$$$$$$$$$++.                 ",
"                    .@$$$$$$$$$$$$$$$$$$$$$$$+.                 ",
"                    .@$$$$$+$$$$$$$$$$$$$$$$$$.                 ",
"                    .@$$$$$+@@$$$$$$$$$$$@$$$$.                 ",
"                    .@$$$$++.@@@$$$$$$$$@@$$+.                  ",
"                    .@$$$+++..@@@@@@@@@@@.$$+.                  ",
"                   .@$$$+++..@...........$$+.@.                 ",
"                   .@$$+++..@@.         .$$+.@@.                ",
"                  .@$$$+.. .@@$.        .$+..@@.                ",
"                  .@$$..    .@$.        .$+..@.                 ",
"                  .@@.      .@@@.       .$$$.@.                 ",
"                  .$++.      .@$+.       .+++.                  ",
"                  .$$$.       .$$.       .$$+.                  ",
"                   ....        ...        ...                   ",
"                                                                ",
"                                                                ",
"                                                                ",
"                                                                ",
"                                                                ",
"                                                                ",
"                                                                ",
"                                                                ",
"                                                                ",
"                                                                ",
"                                                                ",
"                                                                ",
"                                                                ",
"                                                                ",
"                                                                "};
