/* XPM */
static char * haut1_xpm[] = {
"64 64 5 1",
" 	c None",
".	c #120E14",
"+	c #D1AB78",
"@	c #AA6928",
"#	c #82491E",
"                                                                ",
"                                                                ",
"                                                                ",
"                                                                ",
"                                                                ",
"                                                                ",
"                                                                ",
"                                                                ",
"                                                                ",
"                                                                ",
"                                                                ",
"                                                                ",
"                                                                ",
"                                                                ",
"                         .             .                        ",
"                        .+.     .     .+.                       ",
"                        .++.   .+.   .++.                       ",
"                        .@++...+++...++@.                       ",
"                        .@@+++@@@@@+++@@.                       ",
"                        .@@@@@@@@@@@@@@@.                       ",
"                         .@@@@@@@@@@@@@.                        ",
"                        .@@@..@@@@@@@@@#.                       ",
"                     .  .@..++.@@@@@@@@#.                       ",
"                      ....++++.@@@@@@@@@...                     ",
"                        ..+++.@@@@@@@@@@.  .                    ",
"                      ....+++.@@@@@@@@@@..                      ",
"                     .  ..++@.@@@@@@@@@#. .                     ",
"                         .+@@.@@@@@@@@#.                        ",
"                         .@@@.@@@@@@@#.                         ",
"                         .#@@.@@@@@@#.                          ",
"                         .#@@.@@@@@##.                          ",
"                          .@@#.#######.                         ",
"                         ..#@@#.#######.                        ",
"                         .#.#@#.#######.                        ",
"                         .##.#@@.######.                        ",
"                         .###.###.#####.                        ",
"                         .###@...@#####.                        ",
"                         .##@@@@@@@####.                        ",
"                         .#@@@@.@@@@@##.                        ",
"                         .#@@@@@@@@@@@#.                        ",
"                         .#@@@@@@@@@@@#.                        ",
"                         .#@@@@@##@@@@#.                        ",
"                         .#@@@@####@@#.                         ",
"                          .#@@###.####.                         ",
"                          .#@@#.. .##.                          ",
"                           .@#.   .##.                          ",
"                           .@#.   .##.                          ",
"                           .@#.   .##.                          ",
"                           .@#.   .++.                          ",
"                           .@#.   .@+.                          ",
"                           .++.    ..                           ",
"                           .+@.                                 ",
"                            ..                                  ",
"                                                                ",
"                                                                ",
"                                                                ",
"                                                                ",
"                                                                ",
"                                                                ",
"                                                                ",
"                                                                ",
"                                                                ",
"                                                                ",
"                                                                "};
