/* XPM */
static char * idle_xpm[] = {
"64 64 7 1",
" 	c None",
".	c #120E14",
"+	c #AA6928",
"@	c #82491E",
"#	c #D1AB78",
"$	c #9A877E",
"%	c #D3DFE1",
"                                                                ",
"                                                                ",
"                                                                ",
"                                                                ",
"                                                                ",
"                                                                ",
"                                                                ",
"                                                                ",
"                                                                ",
"                                                                ",
"                                                                ",
"                                                                ",
"                                                                ",
"                                                                ",
"                                                                ",
"                                                                ",
"                        .             .                         ",
"                       .+.     .     .+.                        ",
"                       .@+.   .#.   .+@.                        ",
"                       .$@+...###...+@$.                        ",
"                       .$@@++#####++@@$.                        ",
"                       .$$@+++#+#+++@$$.                        ",
"                        .$@+++++++++@$.                         ",
"                       .@+++++++++++++@.                        ",
"                       .@+++++++++++++@.  .                     ",
"                     ...+++.%+++++.%+++...                      ",
"                    .  .++....+++....++.                        ",
"                      ..+++..@+++@..+++...                      ",
"                     . .@++++++.++++++@.                        ",
"                        .@++++.+.++++@.  ..                     ",
"                         .@+++++++++@.  .##..                   ",
"                          .@+++++++@.   .####.                  ",
"                         .###########.   .###.                  ",
"                         .###########.   .####.                 ",
"                        .@+#########+@.   .###.                 ",
"                        .@++#+###+#+++.    .+#+.                ",
"                        .@+++++#++++++.    .+++.                ",
"                        .@.+++++++++.+.    .++@.                ",
"                       .@+.+++.+.+++.+@.   .++@.                ",
"                       .@+.+++.@.+++.+@.  .@++.                 ",
"                       .@+.++@.@.@++.+@. .@++@.                 ",
"                       .@+@.+@.@.@+.++@..@+@@.                  ",
"                       .@+@.+@.@.@+.++@.++@..                   ",
"                        .@@.+@.@.@+.+@.@@@.                     ",
"                         .@.+@.@.@+.@.....                      ",
"                          .###...###.                           ",
"                          .#++. .++#.                           ",
"                           ...   ...                            ",
"                                                                ",
"                                                                ",
"                                                                ",
"                                                                ",
"                                                                ",
"                                                                ",
"                                                                ",
"                                                                ",
"                                                                ",
"                                                                ",
"                                                                ",
"                                                                ",
"                                                                ",
"                                                                ",
"                                                                ",
"                                                                "};
